<svg xmlns="http://www.w3.org/2000/svg" xmlns:xlink="http://www.w3.org/1999/xlink" xmlns:inkscape="http://www.inkscape.org/namespaces/inkscape" version="1.1" width="378" height="378" viewBox="0 0 378 378">
<defs>
<clipPath id="clip_0">
<path transform="matrix(1,0,0,-1,9,369)" d="M-9-9H369V369H-9Z" clip-rule="evenodd"/>
</clipPath>
</defs>
<g clip-path="url(#clip_0)">
<g inkscape:groupmode="layer" inkscape:label="Layer 1">
<path transform="matrix(1,0,0,-1,9,369)" d="M77.8008 71.1839C84.5521 71.1839 90.4878 76.0136 90.4878 81.5204 90.4878 87.0727 84.5521 91.9023 77.8008 91.9023H71.4572C70.7323 91.9023 70.234 91.406 70.234 90.6837V61.524C70.234 60.802 70.7323 60.3054 71.4572 60.3054H75.1275C75.8526 60.3054 76.3509 60.802 76.3509 61.524V70.1005C76.3509 70.7323 76.8042 71.1839 77.4383 71.1839ZM77.4383 86.7115C80.7914 86.6665 84.0538 84.1836 84.0538 81.5204 84.0538 78.9024 80.7914 76.4198 77.4383 76.3747 76.8042 76.3747 76.3509 76.826 76.3509 77.4581V85.6281C76.3509 86.26 76.8042 86.7115 77.4383 86.7115ZM114.7745 61.3888C114.4573 66.0379 112.1919 69.965 108.7481 72.5831 108.2497 72.9893 108.2951 73.4409 108.7934 73.8017 111.4668 75.7429 113.2342 78.5415 113.2342 81.5204 113.2342 87.0727 107.2981 91.9023 100.5469 91.9023H94.2032C93.4787 91.9023 92.9801 91.406 92.9801 90.6837V61.524C92.9801 60.802 93.4787 60.3054 94.2032 60.3054H97.8735C98.5986 60.3054 99.0969 60.802 99.0969 61.524V68.972C99.0969 69.6039 99.5046 70.0554 100.1392 69.965 104.4437 69.4233 107.8875 66.0832 108.3404 61.3434 108.3858 60.7116 108.8391 60.3054 109.4732 60.3054H113.7322C114.3669 60.3054 114.8199 60.7567 114.7745 61.3888ZM100.1843 86.7115C103.5374 86.6665 106.7998 84.1836 106.7998 81.5204 106.7998 78.9024 103.5374 76.4198 100.1843 76.3747 99.5502 76.3747 99.0969 76.826 99.0969 77.4581V85.6281C99.0969 86.26 99.5502 86.7115 100.1843 86.7115ZM125.8758 68.8816C126.0573 69.4687 126.646 69.8749 127.2804 69.8749H134.3035C134.9382 69.8749 135.5272 69.4687 135.7084 68.8816L138.0645 61.524C138.291 60.802 138.9708 60.3054 139.6959 60.3054H143.3659C144.0907 60.3054 144.4082 60.802 144.1817 61.524L134.8472 90.6837C134.6207 91.406 133.941 91.9023 133.2164 91.9023H128.3681C127.643 91.9023 126.9635 91.406 126.7367 90.6837L117.4025 61.524C117.176 60.802 117.4935 60.3054 118.2183 60.3054H121.8886C122.6134 60.3054 123.2929 60.802 123.52 61.524ZM128.9568 75.0657C128.3227 75.0657 128.0055 75.4719 128.1866 76.0586L130.4974 83.2357C130.6789 83.8227 130.9507 83.8227 131.1321 83.2357L133.3976 76.0586C133.5787 75.4719 133.2615 75.0657 132.6274 75.0657ZM152.2015 69.965C152.2015 70.8228 152.519 71.7707 153.0626 72.4476 153.6063 73.1248 154.2407 73.0797 154.6937 72.3574L161.0824 61.7499C161.581 60.8922 162.6231 60.3054 163.6197 60.3054H167.1089C168.1058 60.3054 168.423 60.8922 167.9244 61.7499L158.3184 77.7288C158.0468 78.135 158.0919 78.6767 158.4094 79.0379L167.7433 90.5933C168.3777 91.3606 168.1058 91.9023 167.1089 91.9023H163.3028C162.3061 91.9023 161.2185 91.3606 160.5841 90.5933L153.2438 81.5658C152.6094 80.7985 152.2015 80.9337 152.2015 81.9266V90.6837C152.2015 91.406 151.7034 91.9023 150.9783 91.9023H147.308C146.5832 91.9023 146.0846 91.406 146.0846 90.6837V61.524C146.0846 60.802 146.5832 60.3054 147.308 60.3054H150.9783C151.7034 60.3054 152.2015 60.802 152.2015 61.524ZM192.4832 61.3888C192.1657 66.0379 189.9003 69.965 186.4568 72.5831 185.9581 72.9893 186.0038 73.4409 186.5018 73.8017 189.1752 75.7429 190.9426 78.5415 190.9426 81.5204 190.9426 87.0727 185.0066 91.9023 178.2556 91.9023H171.9119C171.1871 91.9023 170.6885 91.406 170.6885 90.6837V61.524C170.6885 60.802 171.1871 60.3054 171.9119 60.3054H175.5822C176.3073 60.3054 176.8054 60.802 176.8054 61.524V68.972C176.8054 69.6039 177.2133 70.0554 177.8477 69.965 182.1521 69.4233 185.5959 66.0832 186.0489 61.3434 186.0942 60.7116 186.5475 60.3054 187.1819 60.3054H191.4409C192.0753 60.3054 192.5283 60.7567 192.4832 61.3888ZM177.893 86.7115C181.2461 86.6665 184.5085 84.1836 184.5085 81.5204 184.5085 78.9024 181.2461 76.4198 177.893 76.3747 177.2586 76.3747 176.8054 76.826 176.8054 77.4581V85.6281C176.8054 86.26 177.2586 86.7115 177.893 86.7115ZM196.38 61.524C196.38 60.802 196.8786 60.3054 197.6031 60.3054H201.2737C201.9986 60.3054 202.4969 60.802 202.4969 61.524V90.6837C202.4969 91.406 201.9986 91.9023 201.2737 91.9023H197.6031C196.8786 91.9023 196.38 91.406 196.38 90.6837ZM220.7571 85.1769C220.7571 85.8087 221.2104 86.26 221.8448 86.26H229.7285C230.3631 86.26 230.7708 86.6665 230.5896 87.2983L229.6834 90.8643C229.502 91.4961 229.0039 91.9023 228.3693 91.9023H207.0281C206.3934 91.9023 205.8953 91.4961 205.7139 90.8643L204.8077 87.2983C204.6266 86.6665 205.0342 86.26 205.6689 86.26H213.5526C214.187 86.26 214.6402 85.8087 214.6402 85.1769V61.524C214.6402 60.802 215.1388 60.3054 215.8634 60.3054H219.534C220.2588 60.3054 220.7571 60.802 220.7571 61.524ZM232.9004 61.524C232.9004 60.802 233.3991 60.3054 234.1236 60.3054H237.7942C238.519 60.3054 239.0173 60.802 239.0173 61.524V90.6837C239.0173 91.406 238.519 91.9023 237.7942 91.9023H234.1236C233.3991 91.9023 232.9004 91.406 232.9004 90.6837ZM262.0806 68.8816C262.262 69.4687 262.851 69.8749 263.4851 69.8749H270.5083C271.1429 69.8749 271.732 69.4687 271.9131 68.8816L274.2693 61.524C274.4957 60.802 275.1755 60.3054 275.9006 60.3054H279.5706C280.2957 60.3054 280.6129 60.802 280.3864 61.524L271.0522 90.6837C270.8257 91.406 270.146 91.9023 269.4212 91.9023H264.5728C263.8477 91.9023 263.1682 91.406 262.9414 90.6837L253.6075 61.524C253.381 60.802 253.6982 60.3054 254.4233 60.3054H258.0934C258.8185 60.3054 259.4979 60.802 259.7247 61.524ZM265.1618 75.0657C264.5274 75.0657 264.2102 75.4719 264.3914 76.0586L266.7022 83.2357C266.8836 83.8227 267.1554 83.8227 267.3369 83.2357L269.6023 76.0586C269.7837 75.4719 269.4662 75.0657 268.8321 75.0657ZM283.6488 61.524C283.6488 60.802 284.1471 60.3054 284.872 60.3054H288.5423C289.2674 60.3054 289.7657 60.802 289.7657 61.524V90.6837C289.7657 91.406 289.2674 91.9023 288.5423 91.9023H284.872C284.1471 91.9023 283.6488 91.406 283.6488 90.6837Z" fill="#b8ce40"/>
<path transform="matrix(1,0,0,-1,9,369)" d="M245.8845 214.6839C250.5572 205.0438 253.1784 194.2177 253.1784 182.778 253.1784 182.1705 253.1707 181.565 253.1563 180.9612L261.7594 179.8364C261.7937 180.8124 261.8113 181.7932 261.8113 182.7777 261.8113 196.1314 258.618 208.7371 252.9564 219.8682Z" fill="#4fbdcb" fill-rule="evenodd"/>
<path transform="matrix(1,0,0,-1,9,369)" d="M151.1362 259.9413 153.3353 251.5127C126.0964 240.9409 106.7788 214.4103 106.7788 183.354 106.7788 182.7465 106.7865 182.141 106.8009 181.5372L98.1978 180.4124C98.1635 181.3884 98.1459 182.3692 98.1459 183.3537 98.1459 218.4386 120.187 248.3597 151.1362 259.9413" fill="#4fbdcb" fill-rule="evenodd"/>
<path transform="matrix(1,0,0,-1,9,369)" d="M260.7715 299.6946C266.0922 292.576 268.8307 285.0301 269.7942 277.1484 271.4043 263.9781 269.1505 251.3075 261.5899 240.1024 256.282 232.2351 248.7574 226.4947 241.4662 220.5904 229.015 210.5096 216.0805 200.9803 205.6521 188.6196 196.4829 177.7507 190.1296 165.4551 187.8987 151.4157 187.0285 145.9369 186.7175 140.0828 189.2293 134.1218 183.7307 136.8887 180.3002 141.1767 176.921 145.3615 170.4093 153.4266 167.0715 162.9711 167.1386 173.1713 167.2311 187.2683 172.1047 200.0526 180.4878 211.4113 189.3932 223.4786 200.8891 232.7306 212.9046 241.5016 223.6224 249.3252 234.9465 256.4419 243.8756 266.5089 250.8324 274.3523 256.6664 282.8307 259.8151 292.9887 260.4365 294.9948 259.9832 297.0774 260.7715 299.6946" fill="#b8ce40" fill-rule="evenodd"/>
<path transform="matrix(1,0,0,-1,9,369)" d="M179.7761 279.1619C191.9945 278.6689 201.5504 270.3178 201.3846 257.5446 201.2151 244.5406 192.9929 237.0696 180.4178 236.0985 169.1376 235.2277 158.167 246.1181 158.4907 257.4485 158.853 270.0961 167.648 278.4138 179.7761 279.1619" fill="#4fbeca" fill-rule="evenodd"/>
<path transform="matrix(1,0,0,-1,9,369)" d="M108.4805 132.4355C97.0092 132.446 87.035 142.3474 87.0973 153.7767 87.1611 165.5722 97.0727 175.4028 108.7625 175.1638 120.9895 174.9138 129.9991 165.6808 130.0978 154.2013 130.2052 141.819 120.9226 132.5903 108.4805 132.4355" fill="#4fbdcb" fill-rule="evenodd"/>
<path transform="matrix(1,0,0,-1,9,369)" d="M230.2858 154.0069C229.2392 165.2737 240.5993 175.7151 251.8313 175.1933 263.4866 174.6516 272.893 165.6394 272.903 153.8881 272.9129 142.3111 263.0781 132.4227 251.581 132.4508 239.3439 132.4811 230.2832 141.6523 230.2858 154.0069" fill="#4fbeca" fill-rule="evenodd"/>
<path transform="matrix(1,0,0,-1,9,369)" d="M162.2245 166.5417C157.0901 174.6975 155.0849 183.1581 153.5043 191.7754 152.2426 198.6548 151.6833 205.7573 147.7108 211.8433 146.219 214.1266 144.5423 216.29 142.9155 218.5571 145.0307 220.0133 146.3528 218.0682 147.7576 217.5548 155.3777 214.7703 162.4793 210.9728 168.6078 205.5421 169.6904 204.5832 170.5808 203.7526 169.6595 202.0238 164.0313 191.463 161.947 180.125 162.5139 168.2374 162.5292 167.9213 162.4107 167.599 162.2245 166.5417" fill="#b8ce40" fill-rule="evenodd"/>
<path transform="matrix(1,0,0,-1,9,369)" d="M174.134 273.4943C177.2637 273.3976 179.9773 270.4229 179.8637 267.2118 179.7579 264.2196 176.9176 261.5644 173.867 261.6049 170.3231 261.6525 167.927 264.3137 168.107 268.0016 168.2569 271.0522 171.0411 273.5901 174.134 273.4943" fill="#fdfcfa" fill-rule="evenodd"/>
<path transform="matrix(1,0,0,-1,9,369)" d="M96.7343 163.8731C96.7584 167.1171 99.1777 169.5665 102.4223 169.6309 105.6643 169.6946 108.5148 166.9014 108.4552 163.7175 108.3949 160.4826 105.6841 157.7752 102.4373 157.7089 99.2761 157.6446 96.7085 160.4197 96.7343 163.8731" fill="#fdfefd" fill-rule="evenodd"/>
<path transform="matrix(1,0,0,-1,9,369)" d="M239.4028 163.855C239.4978 167.2517 242.0476 169.6893 245.4267 169.6136 248.7858 169.5385 251.371 166.8719 251.2539 163.6036 251.142 160.4511 248.2265 157.6556 245.1387 157.7384 241.9866 157.8231 239.3135 160.6731 239.4028 163.855" fill="#fdfeff" fill-rule="evenodd"/>
<path transform="matrix(1,0,0,-1,9,369)" d="M239.6633 126.2684C228.4305 110.9472 206.0235 100.4987 180.2146 100.4987 154.9925 100.4987 133.0191 110.4772 121.5493 125.2307L129.0246 130.5031C140.1208 117.3835 159.26 108.7186 181.0106 108.7186 202.9757 108.7186 222.2776 117.5559 233.3225 130.8932Z" fill="#4fbdcb" fill-rule="evenodd"/>
</g>
</g>
</svg>
